<?xml version="1.0" encoding="utf-8"?>
<!-- Generator: Adobe Illustrator 16.0.0, SVG Export Plug-In . SVG Version: 6.00 Build 0)  -->
<!DOCTYPE svg PUBLIC "-//W3C//DTD SVG 1.1//EN" "http://www.w3.org/Graphics/SVG/1.1/DTD/svg11.dtd">
<svg version="1.1" id="Layer_1" xmlns="http://www.w3.org/2000/svg" xmlns:xlink="http://www.w3.org/1999/xlink" x="0px" y="0px"
	 width="293px" height="354px" viewBox="0 0 293 354" enable-background="new 0 0 293 354" xml:space="preserve">
<g>
	<path fill="#E6E7E8" d="M101.921,347.545c-40.161,0-72.581-22.741-72.581-82.257V87.223c0-59.516,32.42-82.258,72.581-82.258
		s72.581,22.742,72.581,82.258v178.065C174.502,324.804,142.083,347.545,101.921,347.545z M101.921,35.932
		c-26.613,0-39.677,15.968-39.677,59.516v161.613c0,43.549,13.064,59.516,39.677,59.516s39.677-15.967,39.677-59.516V95.448
		C141.599,51.9,128.534,35.932,101.921,35.932z"/>
	<path fill="#E6E7E8" d="M235.954,6.9h15.484c7.258,0,9.677,2.419,9.677,9.678v319.355c0,7.258-2.419,9.678-9.677,9.678h-13.549
		c-7.258,0-9.677-2.42-9.677-9.678V108.513c0-3.387-1.452-4.839-4.838-4.839h-22.742c-5.323,0-8.226-3.387-5.323-10.161
		l33.387-81.774C229.179,10.771,230.147,6.9,235.954,6.9z"/>
</g>
</svg>
