<?xml version="1.0" encoding="utf-8"?>
<!-- Generator: Adobe Illustrator 16.0.0, SVG Export Plug-In . SVG Version: 6.00 Build 0)  -->
<!DOCTYPE svg PUBLIC "-//W3C//DTD SVG 1.1//EN" "http://www.w3.org/Graphics/SVG/1.1/DTD/svg11.dtd">
<svg version="1.1" id="Layer_1" xmlns="http://www.w3.org/2000/svg" xmlns:xlink="http://www.w3.org/1999/xlink" x="0px" y="0px"
	 width="228px" height="32px" viewBox="0 0 228 32" enable-background="new 0 0 228 32" xml:space="preserve">
<g>
	<path d="M-200.16,9.06c0,3.497-2.832,6.206-6.484,6.206c-3.654,0-6.485-2.708-6.485-6.206c0-3.514,2.832-6.169,6.485-6.169
		C-202.992,2.891-200.16,5.565-200.16,9.06z M-211.031,9.06c0,2.43,2.009,4.353,4.404,4.353c2.394,0,4.352-1.923,4.352-4.353
		c0-2.429-1.958-4.316-4.352-4.316C-209.039,4.744-211.031,6.631-211.031,9.06z"/>
	<path d="M-189.135,6.002c0,1.363-0.822,2.394-2.149,2.727c1.643,0.278,2.621,1.45,2.621,3.094c0,2.098-1.695,3.356-4.457,3.356
		h-5.436V2.942h5.314C-190.708,2.942-189.135,4.096-189.135,6.002z M-191.25,6.369c0-1.014-0.786-1.591-2.098-1.575h-3.146v3.217
		h3.146C-192.036,8.012-191.25,7.417-191.25,6.369z M-190.778,11.561c0-1.084-0.961-1.75-2.569-1.731h-3.146v3.496h3.146
		C-191.74,13.343-190.778,12.697-190.778,11.561z"/>
</g>
<path d="M-197.008,17v12.237h-2.062V17H-197.008z"/>
<path d="M-185.441,20.061c0,1.363-0.823,2.394-2.151,2.727c1.645,0.279,2.621,1.45,2.621,3.094c0,2.099-1.694,3.356-4.456,3.356
	h-5.437V17h5.314C-187.016,17-185.441,18.154-185.441,20.061z M-187.557,20.428c0-1.014-0.787-1.591-2.098-1.574h-3.147v3.216h3.147
	C-188.344,22.069-187.557,21.475-187.557,20.428z M-187.086,25.619c0-1.084-0.96-1.749-2.569-1.73h-3.147v3.495h3.147
	C-188.046,27.401-187.086,26.755-187.086,25.619z"/>
<path d="M-174.985,26.475h-6.171l-1.17,2.763h-2.145L-179.075,17h2.114l5.349,12.237h-2.203L-174.985,26.475z M-175.771,24.641
	l-2.309-5.437l-2.309,5.437H-175.771z"/>
<path d="M-162.886,29.237l-2.237-3.707c-0.174,0.018-0.367,0.018-0.562,0.018h-2.9v3.689h-2.061V17h4.961
	c3.132,0,4.93,1.522,4.93,4.18c0,1.957-0.907,3.338-2.532,3.967l2.744,4.091H-162.886z M-165.685,23.695
	c1.891,0,2.973-0.803,2.973-2.465c0-1.606-1.082-2.377-2.973-2.377h-2.9v4.842H-165.685z"/>
<path d="M-150.438,17v1.854h-3.88v10.384h-2.063V18.854h-3.862V17H-150.438z"/>
<text transform="matrix(1 0 0 1 -174.2168 -88.4658)" font-family="'HelveticaNeue-Medium'" font-size="12">ROB VIBART</text>
<g>
	<g>
		<path d="M-207.767,26.947l-5.552-9.94l-0.947-1.69l-2.347-4.226c1.633-0.627,2.536-2.012,2.536-3.965
			c0-2.667-1.807-4.183-4.926-4.183h-4.97v12.243h2.069v-3.702h2.9c0.189,0,0.378,0,0.554-0.014l2.099,3.847h0.029l0.933,1.69
			l6.733,12.228h1.777l0.189-0.349L-207.767,26.947z M-219.003,9.634h-2.9V4.794h2.9c1.88,0,2.973,0.773,2.973,2.376
			C-216.03,8.831-217.123,9.634-219.003,9.634z"/>
	</g>
</g>
<rect x="-133.888" y="-47.417" fill="#5F52A3" width="12.375" height="12.375"/>
<rect x="-102.888" y="-47.417" fill="#6A3191" width="12.375" height="12.375"/>
<rect x="-120.554" y="-47.417" fill="#E3E419" width="12.375" height="12.375"/>
<line x1="-207.767" y1="26.947" x2="-206.688" y2="28.886"/>
<g>
	<linearGradient id="SVGID_1_" gradientUnits="userSpaceOnUse" x1="-207.7666" y1="22.9463" x2="-200.1445" y2="22.9463">
		<stop  offset="0" style="stop-color:#3A0452"/>
		<stop  offset="0.1384" style="stop-color:#3C0755"/>
		<stop  offset="0.3225" style="stop-color:#420F5C"/>
		<stop  offset="0.5324" style="stop-color:#4C1969"/>
		<stop  offset="0.7612" style="stop-color:#59257B"/>
		<stop  offset="1" style="stop-color:#6A3191"/>
	</linearGradient>
	<polyline fill="url(#SVGID_1_)" points="-207.767,26.947 -202.214,17.007 -200.145,17.007 -206.688,28.886 	"/>
	
		<line fill="none" stroke="#ED1C24" stroke-width="3" stroke-miterlimit="10" stroke-opacity="0" x1="-209.726" y1="21.872" x2="-203.619" y2="32.851"/>
</g>
<g>
	<path d="M28.645,9.06c0,3.497-2.832,6.206-6.484,6.206c-3.653,0-6.485-2.708-6.485-6.206c0-3.514,2.832-6.169,6.485-6.169
		C25.812,2.891,28.645,5.565,28.645,9.06z M17.772,9.06c0,2.43,2.01,4.353,4.404,4.353s4.352-1.923,4.352-4.353
		c0-2.429-1.957-4.316-4.352-4.316C19.765,4.744,17.772,6.631,17.772,9.06z"/>
	<path d="M39.669,6.002c0,1.363-0.822,2.394-2.149,2.727c1.643,0.278,2.621,1.45,2.621,3.094c0,2.098-1.694,3.356-4.457,3.356
		h-5.437V2.942h5.314C38.096,2.942,39.669,4.096,39.669,6.002z M37.554,6.369c0-1.014-0.785-1.591-2.098-1.575h-3.146v3.217h3.146
		C36.769,8.012,37.554,7.417,37.554,6.369z M38.026,11.561c0-1.084-0.962-1.75-2.57-1.731h-3.146v3.496h3.146
		C37.064,13.343,38.026,12.697,38.026,11.561z"/>
</g>
<path d="M31.796,17v12.237h-2.062V17H31.796z"/>
<path d="M43.362,20.061c0,1.363-0.822,2.394-2.15,2.727c1.645,0.279,2.621,1.45,2.621,3.094c0,2.099-1.695,3.356-4.456,3.356H33.94
	V17h5.314C41.788,17,43.362,18.154,43.362,20.061z M41.247,20.428c0-1.014-0.787-1.591-2.098-1.574h-3.146v3.216h3.146
	C40.46,22.069,41.247,21.475,41.247,20.428z M41.718,25.619c0-1.084-0.96-1.749-2.568-1.73h-3.146v3.495h3.146
	C40.758,27.401,41.718,26.755,41.718,25.619z"/>
<path d="M53.819,26.475h-6.172l-1.17,2.763h-2.145L49.729,17h2.113l5.35,12.237h-2.203L53.819,26.475z M53.034,24.641l-2.309-5.437
	l-2.309,5.437H53.034z"/>
<path d="M65.919,29.237l-2.238-3.707c-0.174,0.018-0.367,0.018-0.561,0.018h-2.9v3.689h-2.061V17h4.961
	c3.131,0,4.93,1.522,4.93,4.18c0,1.957-0.908,3.338-2.533,3.967l2.744,4.091H65.919z M63.12,23.695c1.891,0,2.973-0.803,2.973-2.465
	c0-1.606-1.082-2.377-2.973-2.377h-2.9v4.842H63.12z"/>
<path d="M78.366,17v1.854h-3.879v10.384h-2.064V18.854h-3.861V17H78.366z"/>
<g>
	<path d="M21.038,26.947l-5.553-9.94l-0.947-1.69l-2.348-4.226c1.633-0.627,2.537-2.012,2.537-3.965
		c0-2.667-1.808-4.183-4.926-4.183H4.831v12.243h2.07v-3.702h2.9c0.189,0,0.378,0,0.553-0.014l2.1,3.847h0.029l0.932,1.69
		l6.734,12.228h1.777l0.189-0.349L21.038,26.947z M9.802,9.634h-2.9V4.794h2.9c1.88,0,2.973,0.773,2.973,2.376
		C12.774,8.831,11.682,9.634,9.802,9.634z"/>
</g>
<line x1="21.038" y1="26.947" x2="22.116" y2="28.886"/>
<linearGradient id="SVGID_2_" gradientUnits="userSpaceOnUse" x1="22.7549" y1="21.4004" x2="28.6553" y2="21.4004">
	<stop  offset="0" style="stop-color:#3A0452"/>
	<stop  offset="0.1384" style="stop-color:#3C0755"/>
	<stop  offset="0.3225" style="stop-color:#420F5C"/>
	<stop  offset="0.5324" style="stop-color:#4C1969"/>
	<stop  offset="0.7612" style="stop-color:#59257B"/>
	<stop  offset="1" style="stop-color:#6A3191"/>
</linearGradient>
<polygon fill="url(#SVGID_2_)" points="28.655,17.01 23.815,25.79 22.755,23.88 26.595,17.01 "/>
</svg>
